<?xml version="1.0" encoding="UTF-8"?>
<svg width="19px" height="20px" viewBox="0 0 19 20" version="1.1" xmlns="http://www.w3.org/2000/svg" xmlns:xlink="http://www.w3.org/1999/xlink">
    <!-- Generator: Sketch 52.4 (67378) - http://www.bohemiancoding.com/sketch -->
    <title>icon-certificates</title>
    <desc>Created with Sketch.</desc>
    <g id="Page-1" stroke="none" stroke-width="1" fill="none" fill-rule="evenodd">
        <g id="Artboard" fill="#000000" fill-rule="nonzero">
            <path d="M14.1011236,4.61797753 L14.1011236,1.11235955 C14.1011236,0.494382022 13.6179775,0 12.994382,0 L1.12359551,0 C0.505617978,0 0,0.494382022 0,1.11235955 L0,16.4044944 C0,17.0280899 0.505617978,17.5280899 1.12359551,17.5280899 L10.6741573,17.5280899 L10.6741573,13.5842697 C9.71910112,12.6348315 9.13483146,11.3202247 9.13483146,9.87078652 C9.13483146,7.07303371 11.3483146,4.76966292 14.1011236,4.61797753 Z M2.30337079,3.58988764 L9.38202247,3.58988764 L9.38202247,4.71348315 L2.30337079,4.71348315 L2.30337079,3.58988764 Z M2.30337079,7.91573034 L7.07865169,7.91573034 L7.07865169,9.03932584 L2.30337079,9.03932584 L2.30337079,7.91573034 Z M8.14606742,13.3651685 L2.30337079,13.3651685 L2.30337079,12.241573 L8.14606742,12.241573 L8.14606742,13.3651685 Z M14.4101124,14 C12.1296107,14 10.2808989,12.1512882 10.2808989,9.87078652 C10.2808989,7.59028488 12.1296107,5.74157303 14.4101124,5.74157303 C16.690614,5.74157303 18.5393258,7.59028488 18.5393258,9.87078652 C18.5393258,12.1512882 16.690614,14 14.4101124,14 Z M11.7977528,14.4325843 C12.5842697,14.8707865 13.4606742,15.1179775 14.4044944,15.1179775 C15.3483146,15.1179775 16.2303371,14.8651685 17.0168539,14.4325843 L17.0168539,19.9775281 L14.7022472,18.5898876 C14.5280899,18.4831461 14.2865169,18.4831461 14.1067416,18.5898876 L11.7977528,19.9775281 L11.7977528,14.4325843 Z" id="icon-certificates"></path>
        </g>
    </g>
</svg>