<?xml version="1.0" encoding="UTF-8"?>
<svg width="4px" height="17px" viewBox="0 0 4 17" version="1.1" xmlns="http://www.w3.org/2000/svg" xmlns:xlink="http://www.w3.org/1999/xlink">
    <!-- Generator: Sketch 52.4 (67378) - http://www.bohemiancoding.com/sketch -->
    <title>icon vert</title>
    <desc>Created with Sketch.</desc>
    <g id="Page-1" stroke="none" stroke-width="1" fill="none" fill-rule="evenodd">
        <g id="Artboard" fill="#000000">
            <path d="M2,16.75 C0.8954305,16.75 0,15.8125962 0,14.65625 C0,13.4999038 0.8954305,12.5625 2,12.5625 C3.1045695,12.5625 4,13.4999038 4,14.65625 C4,15.8125962 3.1045695,16.75 2,16.75 Z M2,10.46875 C0.8954305,10.46875 0,9.53134619 0,8.375 C0,7.21865381 0.8954305,6.28125 2,6.28125 C3.1045695,6.28125 4,7.21865381 4,8.375 C4,9.53134619 3.1045695,10.46875 2,10.46875 Z M2,4.1875 C0.8954305,4.1875 0,3.25009619 0,2.09375 C0,0.937403805 0.8954305,0 2,0 C3.1045695,0 4,0.937403805 4,2.09375 C4,3.25009619 3.1045695,4.1875 2,4.1875 Z" id="icon-vert"></path>
        </g>
    </g>
</svg>