<?xml version="1.0" encoding="UTF-8"?>
<svg width="19px" height="18px" viewBox="0 0 19 18" version="1.1" xmlns="http://www.w3.org/2000/svg" xmlns:xlink="http://www.w3.org/1999/xlink">
    <!-- Generator: Sketch 52.4 (67378) - http://www.bohemiancoding.com/sketch -->
    <title>icon-department</title>
    <desc>Created with Sketch.</desc>
    <g id="Page-1" stroke="none" stroke-width="1" fill="none" fill-rule="evenodd">
        <g id="Artboard" fill="#000000">
            <path d="M7.04430426,11.7418804 L11.9070907,11.7418804 C12.3621401,11.7418804 12.7310824,11.3729382 12.7310824,10.9178888 C12.7310824,10.4628394 12.3621401,10.0938972 11.9070907,10.0938972 L7.04430426,10.0938972 C6.5892549,10.0938972 6.22031265,10.4628394 6.22031265,10.9178888 C6.22031265,11.3729382 6.5892549,11.7418804 7.04430426,11.7418804 L7.04430426,11.7418804 Z M17.0455024,7.62192238 L1.90136064,7.62192238 L4.05259673,15.4498427 L9.4756975,15.4498427 L14.8578047,15.4498427 L17.0455024,7.62192238 Z M18.951807,4.45202666 L18.951807,6.6969918 L18.951807,6.69863978 L18.951807,6.69905178 L18.951807,6.70028777 C18.951807,6.70049376 18.951601,6.70049376 18.951601,6.70049376 C18.951189,6.78186294 18.9392411,6.86034814 18.9169934,6.93450738 L16.2796022,16.493016 C16.1809292,16.8502164 15.8558645,17.0978259 15.4852743,17.0978259 L3.42244915,17.0978259 C3.05041694,17.0978259 2.72452825,16.8485684 2.62709125,16.4895141 L0.033783656,6.93100542 C0.0216297797,6.89042383 0.012565872,6.84840026 0.00700392867,6.80555269 C0.00144198532,6.76291113 0,6.72026956 0,6.67824599 L0,4.45202666 C0,3.9969773 0.368942243,3.62803505 0.823991609,3.62803505 C1.27904097,3.62803505 1.64798322,3.9969773 1.64798322,4.45202666 L1.64798322,5.97393916 L17.3038238,5.97393916 L17.3038238,4.45202666 C17.3038238,3.9969773 17.672766,3.62803505 18.1278154,3.62803505 C18.5828648,3.62803505 18.951807,3.9969773 18.951807,4.45202666 L18.951807,4.45202666 Z M5.41918681,1.44198532 L13.5322082,1.44198532 C13.9304021,1.44198532 14.2532008,1.1191866 14.2532008,0.720992658 C14.2532008,0.322798713 13.9304021,0 13.5322082,0 L5.41918681,0 C5.02099287,0 4.69819415,0.322798713 4.69819415,0.720992658 C4.69819415,1.1191866 5.02099287,1.44198532 5.41918681,1.44198532 L5.41918681,1.44198532 Z M3.24343697,3.50196434 C3.24343697,3.04691497 3.61258521,2.67797273 4.06742858,2.67797273 L14.8839664,2.67797273 C15.3390158,2.67797273 15.707958,3.04691497 15.707958,3.50196434 C15.707958,3.9570137 15.3390158,4.32595595 14.8839664,4.32595595 L4.06742858,4.32595595 C3.61258521,4.32595595 3.24343697,3.9570137 3.24343697,3.50196434 L3.24343697,3.50196434 Z" id="icon-department"></path>
        </g>
    </g>
</svg>