<?xml version="1.0" encoding="UTF-8"?>
<svg width="21px" height="20px" viewBox="0 0 21 20" version="1.1" xmlns="http://www.w3.org/2000/svg" xmlns:xlink="http://www.w3.org/1999/xlink">
    <!-- Generator: Sketch 52.4 (67378) - http://www.bohemiancoding.com/sketch -->
    <title>Shape</title>
    <desc>Created with Sketch.</desc>
    <g id="Symbols" stroke="none" stroke-width="1" fill="none" fill-rule="evenodd">
        <g id="Side-Nav/Corp" transform="translate(-34.000000, -375.000000)" fill="#000000">
            <g id="Side-nav">
                <g id="Menu" transform="translate(0.004184, 156.000000)">
                    <g id="icons" transform="translate(33.133891, 22.000000)">
                        <path d="M19.0460251,201.366169 L15.0460251,201.366169 L15.0460251,199.366169 C15.0460251,198.256169 14.1560251,197.366169 13.0460251,197.366169 L9.0460251,197.366169 C7.9360251,197.366169 7.0460251,198.256169 7.0460251,199.366169 L7.0460251,201.366169 L3.0460251,201.366169 C1.9360251,201.366169 1.0560251,202.256169 1.0560251,203.366169 L1.0460251,214.366169 C1.0460251,215.476169 1.9360251,216.366169 3.0460251,216.366169 L19.0460251,216.366169 C20.1560251,216.366169 21.0460251,215.476169 21.0460251,214.366169 L21.0460251,203.366169 C21.0460251,202.256169 20.1560251,201.366169 19.0460251,201.366169 Z M13.0460251,201.366169 L9.0460251,201.366169 L9.0460251,199.366169 L13.0460251,199.366169 L13.0460251,201.366169 Z" id="Shape"></path>
                    </g>
                </g>
            </g>
        </g>
    </g>
</svg>