<?xml version="1.0" encoding="UTF-8"?>
<svg width="18px" height="21px" viewBox="0 0 18 21" version="1.1" xmlns="http://www.w3.org/2000/svg" xmlns:xlink="http://www.w3.org/1999/xlink">
    <!-- Generator: Sketch 52.4 (67378) - http://www.bohemiancoding.com/sketch -->
    <title>icon-applicants</title>
    <desc>Created with Sketch.</desc>
    <g id="Symbols" stroke="none" stroke-width="1" fill="none" fill-rule="evenodd">
        <g id="Side-Nav/Corp" transform="translate(-35.000000, -329.000000)" fill="#000000">
            <g id="Side-nav">
                <g id="Menu" transform="translate(0.004184, 156.000000)">
                    <g id="labels" transform="translate(0.364017, 0.000000)">
                        <g id="Group-3" transform="translate(34.000000, 173.354719)">
                            <path d="M16.6317992,2 L12.4517992,2 C12.0317992,0.84 10.9317992,0 9.63179916,0 C8.33179916,0 7.23179916,0.84 6.81179916,2 L2.63179916,2 C1.53179916,2 0.631799163,2.9 0.631799163,4 L0.631799163,18 C0.631799163,19.1 1.53179916,20 2.63179916,20 L16.6317992,20 C17.7317992,20 18.6317992,19.1 18.6317992,18 L18.6317992,4 C18.6317992,2.9 17.7317992,2 16.6317992,2 Z M9.63179916,2 C10.1817992,2 10.6317992,2.45 10.6317992,3 C10.6317992,3.55 10.1817992,4 9.63179916,4 C9.08179916,4 8.63179916,3.55 8.63179916,3 C8.63179916,2.45 9.08179916,2 9.63179916,2 Z M9.63179916,6 C11.2917992,6 12.6317992,7.34 12.6317992,9 C12.6317992,10.66 11.2917992,12 9.63179916,12 C7.97179916,12 6.63179916,10.66 6.63179916,9 C6.63179916,7.34 7.97179916,6 9.63179916,6 Z M15.6317992,18 L3.63179916,18 L3.63179916,16.6 C3.63179916,14.6 7.63179916,13.5 9.63179916,13.5 C11.6317992,13.5 15.6317992,14.6 15.6317992,16.6 L15.6317992,18 Z" id="icon-applicants"></path>
                        </g>
                    </g>
                </g>
            </g>
        </g>
    </g>
</svg>