<?xml version="1.0" encoding="UTF-8"?>
<svg width="18px" height="17px" viewBox="0 0 18 17" version="1.1" xmlns="http://www.w3.org/2000/svg" xmlns:xlink="http://www.w3.org/1999/xlink">
    <!-- Generator: Sketch 52.4 (67378) - http://www.bohemiancoding.com/sketch -->
    <title>icon-search</title>
    <desc>Created with Sketch.</desc>
    <g id="Page-1" stroke="none" stroke-width="1" fill="none" fill-rule="evenodd">
        <g id="Artboard-" transform="translate(0.000000, -1.000000)" fill="#000000">
            <path d="M12.5,12 L11.71,12 L11.43,11.73 C12.41,10.59 13,9.11 13,7.5 C13,3.91 10.09,1 6.5,1 C2.91,1 0,3.91 0,7.5 C0,11.09 2.91,14 6.5,14 C8.11,14 9.59,13.41 10.73,12.43 L11,12.71 L11,13.5 L16,18.49 L17.49,17 L12.5,12 L12.5,12 Z M6.5,12 C4.01,12 2,9.99 2,7.5 C2,5.01 4.01,3 6.5,3 C8.99,3 11,5.01 11,7.5 C11,9.99 8.99,12 6.5,12 L6.5,12 Z" id="icon-search"></path>
        </g>
    </g>
</svg>