<?xml version="1.0" encoding="UTF-8"?>
<svg width="17px" height="13px" viewBox="0 0 17 13" version="1.1" xmlns="http://www.w3.org/2000/svg" xmlns:xlink="http://www.w3.org/1999/xlink">
    <!-- Generator: Sketch 52.4 (67378) - http://www.bohemiancoding.com/sketch -->
    <title>icon-private</title>
    <desc>Created with Sketch.</desc>
    <g id="Page-1" stroke="none" stroke-width="1" fill="none" fill-rule="evenodd">
        <g id="Artboard" fill="#000000" fill-rule="nonzero">
            <path d="M14.1425,2.84278107 C15.261344,3.72291208 16.244107,4.89663873 17,6.36396103 C14.552266,11.115445 9.725592,12.7883017 5.60275,11.3825311 L7.323846,9.66143553 C7.691432,9.79255863 8.087378,9.86396103 8.5,9.86396103 C10.432997,9.86396103 12,8.29695763 12,6.36396103 C12,5.95133873 11.928598,5.55539343 11.797475,5.18780683 L14.1425,2.84278107 Z M11.39725,1.34539091 L9.676154,3.06648652 C9.308568,2.93536347 8.912622,2.86396103 8.5,2.86396103 C6.567003,2.86396103 5,4.43096443 5,6.36396103 C5,6.77658333 5.071402,7.17252863 5.202525,7.54011523 L2.8575,9.88514103 C1.738656,9.00501003 0.755893,7.83128333 0,6.36396103 C2.447734,1.61247706 7.274408,-0.06037965 11.39725,1.34539091 Z M2.136039,12.0208152 L14.156854,0 L14.863961,0.70710678 L2.843146,12.727922 L2.136039,12.0208152 Z" id="icon-private"></path>
        </g>
    </g>
</svg>