<?xml version="1.0" encoding="UTF-8"?>
<svg width="23px" height="14px" viewBox="0 0 23 14" version="1.1" xmlns="http://www.w3.org/2000/svg" xmlns:xlink="http://www.w3.org/1999/xlink">
    <!-- Generator: Sketch 52.4 (67378) - http://www.bohemiancoding.com/sketch -->
    <title>icon-teams</title>
    <desc>Created with Sketch.</desc>
    <g id="Page-1" stroke="none" stroke-width="1" fill="none" fill-rule="evenodd">
        <g id="Artboard" fill="#000000">
            <path d="M7.03029289,8.001 C4.68753138,8.001 0,9.168 0,11.501 L0,14 L14.0595816,14 L14.0595816,11.501 C14.0595816,9.168 9.37405858,8.001 7.03029289,8.001 M15.0647699,8.001 C14.7725523,8.001 14.4451883,8.019 14.094728,8.055 C15.2575732,8.893 16.0679498,10.018 16.0679498,11.501 L16.0679498,14 L22.0920502,14 L22.0920502,11.501 C22.0920502,9.168 17.4075314,8.001 15.0647699,8.001 M7.03029289,0 C5.36736402,0 4.01774059,1.345 4.01774059,3.001 C4.01774059,4.657 5.36736402,6.001 7.03029289,6.001 C8.69422594,6.001 10.0338075,4.657 10.0338075,3.001 C10.0338075,1.345 8.69422594,0 7.03029289,0 M15.0647699,0 C13.3998326,0 12.0512134,1.345 12.0512134,3.001 C12.0512134,4.657 13.3998326,6.001 15.0647699,6.001 C16.7276987,6.001 18.0662762,4.657 18.0662762,3.001 C18.0662762,1.345 16.7276987,0 15.0647699,0" id="icon-teams"></path>
        </g>
    </g>
</svg>