<?xml version="1.0" encoding="UTF-8"?>
<svg width="23px" height="15px" viewBox="0 0 23 15" version="1.1" xmlns="http://www.w3.org/2000/svg" xmlns:xlink="http://www.w3.org/1999/xlink">
    <!-- Generator: Sketch 52.4 (67378) - http://www.bohemiancoding.com/sketch -->
    <title>icon-consultants</title>
    <desc>Created with Sketch.</desc>
    <g id="Symbols" stroke="none" stroke-width="1" fill="none" fill-rule="evenodd">
        <g id="Side-Nav/Corp" transform="translate(-33.000000, -263.000000)" fill="#000000">
            <g id="Side-nav">
                <g id="Menu" transform="translate(0.004184, 156.000000)">
                    <g id="labels" transform="translate(0.364017, 0.000000)">
                        <g id="Group-2" transform="translate(32.000000, 63.988549)">
                            <path d="M7.80016736,51.501 C5.45740586,51.501 0.769874477,52.668 0.769874477,55.001 L0.769874477,57.5 L14.8294561,57.5 L14.8294561,55.001 C14.8294561,52.668 10.1439331,51.501 7.80016736,51.501 M15.8346444,51.501 C15.5424268,51.501 15.2150628,51.519 14.8646025,51.555 C16.0274477,52.393 16.8378243,53.518 16.8378243,55.001 L16.8378243,57.5 L22.8619247,57.5 L22.8619247,55.001 C22.8619247,52.668 18.1774059,51.501 15.8346444,51.501 M7.80016736,43.5 C6.13723849,43.5 4.78761506,44.845 4.78761506,46.501 C4.78761506,48.157 6.13723849,49.501 7.80016736,49.501 C9.46410042,49.501 10.803682,48.157 10.803682,46.501 C10.803682,44.845 9.46410042,43.5 7.80016736,43.5 M15.8346444,43.5 C14.1697071,43.5 12.8210879,44.845 12.8210879,46.501 C12.8210879,48.157 14.1697071,49.501 15.8346444,49.501 C17.4975732,49.501 18.8361506,48.157 18.8361506,46.501 C18.8361506,44.845 17.4975732,43.5 15.8346444,43.5" id="icon-consultants"></path>
                        </g>
                    </g>
                </g>
            </g>
        </g>
    </g>
</svg>