<?xml version="1.0" encoding="UTF-8"?>
<svg width="19px" height="19px" viewBox="0 0 19 19" version="1.1" xmlns="http://www.w3.org/2000/svg" xmlns:xlink="http://www.w3.org/1999/xlink">
    <!-- Generator: Sketch 52.4 (67378) - http://www.bohemiancoding.com/sketch -->
    <title>icon-rates</title>
    <desc>Created with Sketch.</desc>
    <g id="Page-1" stroke="none" stroke-width="1" fill="none" fill-rule="evenodd">
        <g id="Artboard" fill="#000000" fill-rule="nonzero">
            <path d="M17.7549727,8.81360773 L9.55872851,0.617289743 C9.16348333,0.222045167 8.62741601,-6.04941117e-07 8.06845535,0 L3.16126533,0 C1.4153467,-9.35922548e-16 9.35922548e-16,1.4153467 0,3.16126533 L0,8.06839212 C1.31700406e-05,8.62733871 0.222066517,9.16338705 0.617310818,9.5586126 L8.81355505,17.7549306 C9.6366062,18.5779258 10.9709765,18.5779258 11.7940276,17.7549306 L17.7549727,11.7939855 C18.5779455,10.970962 18.5779455,9.63663117 17.7549727,8.81360773 Z M4.80582931,4.80576609 C4.35377627,5.25783633 3.67391326,5.39307957 3.08326394,5.14843119 C2.49261461,4.90378281 2.10749932,4.32742298 2.10749932,3.68811127 C2.10749932,3.04879956 2.49261461,2.47243973 3.08326394,2.22779135 C3.67391326,1.98314297 4.35377627,2.11838621 4.80582931,2.57045645 C5.42307642,3.18772704 5.42307642,4.1884955 4.80582931,4.80576609 Z M10.8009899,13.8579967 L10.8009899,15.0160103 L9.22035721,15.0160103 L9.22035721,13.9033397 C8.56881174,13.8265161 7.96286701,13.5300534 7.50234649,13.0627909 L7.3189931,12.8767926 L7.50345293,12.6918164 L8.2881106,11.9049775 L8.47487815,11.7176198 L8.66139281,11.9051882 C9.01988468,12.2278146 9.49497484,12.3893532 9.97582586,12.3521174 C10.8127076,12.3521174 10.8127076,11.9725969 10.8127076,11.847885 C10.8245744,11.7271106 10.7854492,11.6068698 10.704782,11.5162051 C10.5898479,11.4218901 10.4463851,11.3692349 10.297727,11.3668037 L9.54490324,11.2619656 C9.04267135,11.2144421 8.56878993,11.007586 8.19247178,10.6716098 C7.83325801,10.2932883 7.64434401,9.78454691 7.66957742,9.26346633 C7.65048704,8.30946222 8.29424328,7.46927256 9.22035721,7.23948728 L9.22035721,6.05909188 L10.8009899,6.05909188 L10.8009899,7.17594584 C11.3623911,7.2579223 11.8834103,7.51558223 12.2893241,7.91197271 L12.4827936,8.09926714 L12.2913263,8.28854264 L11.5236446,9.04766782 L11.3414398,9.22785994 L11.1563372,9.05073425 C10.8549789,8.78959936 10.4604794,8.66206749 10.0632875,8.69737854 C9.62734904,8.69737854 9.36712422,8.89226001 9.36712422,9.21866066 C9.36437622,9.31291281 9.40024893,9.40419715 9.4664301,9.47136167 C9.59059027,9.57141041 9.7412441,9.63305917 9.89992388,9.64875081 L10.6326736,9.75307256 C11.1239246,9.79177617 11.5904868,9.98430339 11.9660742,10.3033013 C12.3566658,10.704965 12.5603635,11.2523551 12.5273674,11.8116464 C12.5265714,12.8229925 11.7977565,13.6868886 10.8009899,13.8579967 Z" id="icon-rates"></path>
        </g>
    </g>
</svg>