<?xml version="1.0" encoding="UTF-8"?>
<svg width="20px" height="20px" viewBox="0 0 20 20" version="1.1" xmlns="http://www.w3.org/2000/svg" xmlns:xlink="http://www.w3.org/1999/xlink">
    <!-- Generator: Sketch 52.4 (67378) - http://www.bohemiancoding.com/sketch -->
    <title>Settings</title>
    <desc>Created with Sketch.</desc>
    <g id="Symbols" stroke="none" stroke-width="1" fill="none" fill-rule="evenodd">
        <g id="Side-Nav/Consultant" transform="translate(-34.000000, -448.000000)" fill="#000000">
            <g id="Side-nav">
                <g id="Menu" transform="translate(1.004184, 156.000000)">
                    <g id="icons" transform="translate(32.133891, 12.000000)">
                        <path d="M18.2151268,291 C18.2151268,290.7 18.3155453,290.4 18.3155453,290 C18.3155453,289.6 18.3155453,289.3 18.2151268,289 L20.3239135,287.3 C20.5247503,287.1 20.5247503,286.9 20.4243319,286.7 L18.4159637,283.2 C18.3155453,283.1 18.1147084,283 17.8134532,283.1 L15.302993,284.1 C14.8009009,283.7 14.1983904,283.4 13.59588,283.1 L13.1942063,280.5 C13.2946248,280.2 12.9933695,280 12.7925327,280 L8.7757963,280 C8.57495948,280 8.27370425,280.2 8.27370425,280.4 L7.87203061,283.1 C7.26952015,283.3 6.7674281,283.7 6.16491764,284.1 L3.7548758,283.1 C3.45362057,283 3.25278375,283.1 3.05194693,283.3 L1.04357873,286.8 C0.943160319,286.9 1.04357873,287.2 1.24441555,287.4 L3.35320216,289 C3.35320216,289.3 3.25278375,289.6 3.25278375,290 C3.25278375,290.4 3.25278375,290.7 3.35320216,291 L1.24441555,292.7 C1.04357873,292.9 1.04357873,293.1 1.14399714,293.3 L3.15236534,296.8 C3.25278375,296.9 3.45362057,297 3.7548758,296.9 L6.26533605,295.9 C6.7674281,296.3 7.36993856,296.6 7.97244902,296.9 L8.37412266,299.5 C8.37412266,299.7 8.57495948,299.9 8.87621471,299.9 L12.8929511,299.9 C13.0937879,299.9 13.3950432,299.7 13.3950432,299.5 L13.7967168,296.9 C14.3992273,296.6 15.0017377,296.3 15.5038298,295.9 L18.01429,296.9 C18.2151268,297 18.5163821,296.9 18.6168005,296.7 L20.6251687,293.2 C20.7255871,293 20.7255871,292.7 20.5247503,292.6 L18.2151268,291 L18.2151268,291 Z M10.7841645,293.5 C8.87621471,293.5 7.26952015,291.9 7.26952015,290 C7.26952015,288.1 8.87621471,286.5 10.7841645,286.5 C12.6921143,286.5 14.2988089,288.1 14.2988089,290 C14.2988089,291.9 12.6921143,293.5 10.7841645,293.5 L10.7841645,293.5 Z" id="Settings"></path>
                    </g>
                </g>
            </g>
        </g>
    </g>
</svg>