<?xml version="1.0" encoding="UTF-8"?>
<svg width="34px" height="24px" viewBox="0 0 34 24" version="1.1" xmlns="http://www.w3.org/2000/svg" xmlns:xlink="http://www.w3.org/1999/xlink">
    <!-- Generator: Sketch 52.4 (67378) - http://www.bohemiancoding.com/sketch -->
    <title>icon-eye</title>
    <desc>Created with Sketch.</desc>
    <g id="Page-1" stroke="none" stroke-width="1" fill="none" fill-rule="evenodd">
        <g id="Artboard" fill="#000000" fill-rule="nonzero">
            <path d="M17,23.3142857 C7.61115925,23.3142857 0,13.9885714 0,11.6571429 C0,9.32571429 7.61115925,0 17,0 C26.3888407,0 34,9.32571429 34,11.6571429 C34,13.9885714 26.3888407,23.3142857 17,23.3142857 Z M17,19.4285715 C21.0237895,19.4285715 24.2857134,15.9491844 24.2857134,11.6571429 C24.2857134,7.36510134 21.0237895,3.88571428 17,3.88571428 C12.9762105,3.88571428 9.71428663,7.36510134 9.71428663,11.6571429 C9.71428663,15.9491844 12.9762105,19.4285715 17,19.4285715 Z M17,15.2164569 C15.1571044,15.2164569 13.6631422,13.6228977 13.6631422,11.6571429 C13.6631422,9.69138805 15.1571044,8.09782885 17,8.09782885 C18.8428956,8.09782885 20.3368578,9.69138805 20.3368578,11.6571429 C20.3368578,13.6228977 18.8428956,15.2164569 17,15.2164569 Z" id="icon-eye"></path>
        </g>
    </g>
</svg>