<?xml version="1.0" encoding="UTF-8"?>
<svg width="18px" height="18px" viewBox="0 0 18 18" version="1.1" xmlns="http://www.w3.org/2000/svg" xmlns:xlink="http://www.w3.org/1999/xlink">
    <!-- Generator: Sketch 52.4 (67378) - http://www.bohemiancoding.com/sketch -->
    <title>Find Job</title>
    <desc>Created with Sketch.</desc>
    <g id="Symbols" stroke="none" stroke-width="1" fill="none" fill-rule="evenodd">
        <g id="Side-Nav/Consultant" transform="translate(-36.000000, -216.000000)" fill="#000000">
            <g id="Side-nav">
                <g id="Menu" transform="translate(1.004184, 156.000000)">
                    <g id="icons" transform="translate(32.133891, 12.000000)">
                        <path d="M15.5648536,59 L14.7615063,59 L14.460251,58.7 C15.4644351,57.6 16.0669456,56.1 16.0669456,54.5 C16.0669456,50.9 13.1548117,48 9.53974895,48 C5.92468619,48 3.0125523,50.9 3.0125523,54.5 C3.0125523,58.1 5.92468619,61 9.53974895,61 C11.1464435,61 12.6527197,60.4 13.7573222,59.4 L14.0585774,59.7 L14.0585774,60.5 L19.0794979,65.5 L20.5857741,64 L15.5648536,59 L15.5648536,59 Z M9.53974895,59 C7.0292887,59 5.0209205,57 5.0209205,54.5 C5.0209205,52 7.0292887,50 9.53974895,50 C12.0502092,50 14.0585774,52 14.0585774,54.5 C14.0585774,57 12.0502092,59 9.53974895,59 L9.53974895,59 Z" id="Find-Job"></path>
                    </g>
                </g>
            </g>
        </g>
    </g>
</svg>