<?xml version="1.0" encoding="UTF-8"?>
<svg width="14px" height="16px" viewBox="0 0 14 16" version="1.1" xmlns="http://www.w3.org/2000/svg" xmlns:xlink="http://www.w3.org/1999/xlink">
    <!-- Generator: Sketch 52.4 (67378) - http://www.bohemiancoding.com/sketch -->
    <title>icon-calendar</title>
    <desc>Created with Sketch.</desc>
    <g id="Page-1" stroke="none" stroke-width="1" fill="none" fill-rule="evenodd">
        <g id="Artboard" fill="#000000">
            <path d="M10.7598819,6.78883771 L3.25988186,6.78883771 L3.25988186,8.28883771 L10.7598819,8.28883771 L10.7598819,6.78883771 L10.7598819,6.78883771 Z M12.2598819,1.53883771 L11.5098819,1.53883771 L11.5098819,0.038837707 L10.0098819,0.038837707 L10.0098819,1.53883771 L4.00988186,1.53883771 L4.00988186,0.038837707 L2.50988186,0.038837707 L2.50988186,1.53883771 L1.75988186,1.53883771 C0.927381862,1.53883771 0.267381862,2.21383771 0.267381862,3.03883771 L0.259881862,13.5388377 C0.259881862,14.3638377 0.927381862,15.0388377 1.75988186,15.0388377 L12.2598819,15.0388377 C13.0848819,15.0388377 13.7598819,14.3638377 13.7598819,13.5388377 L13.7598819,3.03883771 C13.7598819,2.21383771 13.0848819,1.53883771 12.2598819,1.53883771 L12.2598819,1.53883771 Z M12.2598819,13.5388377 L1.75988186,13.5388377 L1.75988186,5.28883771 L12.2598819,5.28883771 L12.2598819,13.5388377 L12.2598819,13.5388377 Z M8.50988186,9.78883771 L3.25988186,9.78883771 L3.25988186,11.2888377 L8.50988186,11.2888377 L8.50988186,9.78883771 L8.50988186,9.78883771 Z" id="icon-calendar"></path>
        </g>
    </g>
</svg>