<?xml version="1.0" encoding="UTF-8"?>
<svg width="11px" height="11px" viewBox="0 0 11 11" version="1.1" xmlns="http://www.w3.org/2000/svg" xmlns:xlink="http://www.w3.org/1999/xlink">
    <!-- Generator: Sketch 52.4 (67378) - http://www.bohemiancoding.com/sketch -->
    <title>icon-delete</title>
    <desc>Created with Sketch.</desc>
    <g id="Page-1" stroke="none" stroke-width="1" fill="none" fill-rule="evenodd">
        <g id="Artboard" fill="#979797" fill-rule="nonzero">
            <path d="M5.5,4.79289322 L9.64644661,0.646446609 C9.84170876,0.451184464 10.1582912,0.451184464 10.3535534,0.646446609 C10.5488155,0.841708755 10.5488155,1.15829124 10.3535534,1.35355339 L6.20710678,5.5 L10.3535534,9.64644661 C10.5488155,9.84170876 10.5488155,10.1582912 10.3535534,10.3535534 C10.1582912,10.5488155 9.84170876,10.5488155 9.64644661,10.3535534 L5.5,6.20710678 L1.35355339,10.3535534 C1.15829124,10.5488155 0.841708755,10.5488155 0.646446609,10.3535534 C0.451184464,10.1582912 0.451184464,9.84170876 0.646446609,9.64644661 L4.79289322,5.5 L0.646446609,1.35355339 C0.451184464,1.15829124 0.451184464,0.841708755 0.646446609,0.646446609 C0.841708755,0.451184464 1.15829124,0.451184464 1.35355339,0.646446609 L5.5,4.79289322 Z" id="icon-delete"></path>
        </g>
    </g>
</svg>