<?xml version="1.0" encoding="UTF-8"?>
<svg width="20px" height="20px" viewBox="0 0 20 20" version="1.1" xmlns="http://www.w3.org/2000/svg" xmlns:xlink="http://www.w3.org/1999/xlink">
    <!-- Generator: Sketch 52.4 (67378) - http://www.bohemiancoding.com/sketch -->
    <title>icon-clock-solid</title>
    <desc>Created with Sketch.</desc>
    <g id="Page-1" stroke="none" stroke-width="1" fill="none" fill-rule="evenodd">
        <g id="Artboard" fill="#000000">
            <path d="M13.3193478,12.0893478 C13.658913,12.428913 13.658913,12.9795652 13.3193478,13.3191304 C13.1495652,13.488913 12.9271739,13.573913 12.7045652,13.573913 C12.4819565,13.573913 12.2595652,13.488913 12.0897826,13.3191304 L9.38521739,10.615 C9.22217391,10.4519565 9.13043478,10.2306522 9.13043478,10 L9.13043478,4.8176087 C9.13043478,4.3373913 9.51978261,3.94804348 10,3.94804348 C10.4802174,3.94804348 10.8695652,4.3373913 10.8695652,4.8176087 L10.8695652,9.63978261 L13.3193478,12.0893478 Z M0,10 C0,15.513913 4.48608696,20 10,20 C15.5141304,20 20,15.513913 20,10 C20,4.48608696 15.5141304,0 10,0 C4.48608696,0 0,4.48608696 0,10 Z" id="icon-clock-solid"></path>
        </g>
    </g>
</svg>