<?xml version="1.0" encoding="UTF-8"?>
<svg width="21px" height="21px" viewBox="0 0 21 21" version="1.1" xmlns="http://www.w3.org/2000/svg" xmlns:xlink="http://www.w3.org/1999/xlink">
    <!-- Generator: Sketch 52.4 (67378) - http://www.bohemiancoding.com/sketch -->
    <title>Icon-match</title>
    <desc>Created with Sketch.</desc>
    <g id="Page-1" stroke="none" stroke-width="1" fill="none" fill-rule="evenodd">
        <g id="Artboard" fill="#000000">
            <path d="M10.8270677,7.23809524 C8.83308271,7.23809524 7.21804511,8.85761905 7.21804511,10.8571429 C7.21804511,12.8566667 8.83308271,14.4761905 10.8270677,14.4761905 C12.8210526,14.4761905 14.4360902,12.8566667 14.4360902,10.8571429 C14.4360902,8.85761905 12.8210526,7.23809524 10.8270677,7.23809524 L10.8270677,7.23809524 Z M18.8932331,9.95238095 C18.4781955,6.17952381 15.4917293,3.1847619 11.7293233,2.76857143 L11.7293233,0.904761905 L9.92481203,0.904761905 L9.92481203,2.76857143 C6.16240602,3.1847619 3.17593985,6.17952381 2.76090226,9.95238095 L0.902255639,9.95238095 L0.902255639,11.7619048 L2.76090226,11.7619048 C3.17593985,15.5347619 6.16240602,18.5295238 9.92481203,18.9457143 L9.92481203,20.8095238 L11.7293233,20.8095238 L11.7293233,18.9457143 C15.4917293,18.5295238 18.4781955,15.5347619 18.8932331,11.7619048 L20.7518797,11.7619048 L20.7518797,9.95238095 L18.8932331,9.95238095 L18.8932331,9.95238095 Z M10.8270677,17.1904762 C7.33533835,17.1904762 4.5112782,14.3585714 4.5112782,10.8571429 C4.5112782,7.35571429 7.33533835,4.52380952 10.8270677,4.52380952 C14.318797,4.52380952 17.1428571,7.35571429 17.1428571,10.8571429 C17.1428571,14.3585714 14.318797,17.1904762 10.8270677,17.1904762 L10.8270677,17.1904762 Z" id="Icon-match"></path>
        </g>
    </g>
</svg>