<?xml version="1.0" encoding="UTF-8"?>
<svg width="18px" height="18px" viewBox="0 0 18 18" version="1.1" xmlns="http://www.w3.org/2000/svg" xmlns:xlink="http://www.w3.org/1999/xlink">
    <!-- Generator: Sketch 52.4 (67378) - http://www.bohemiancoding.com/sketch -->
    <title>icon-calendar-solid</title>
    <desc>Created with Sketch.</desc>
    <g id="Page-1" stroke="none" stroke-width="1" fill="none" fill-rule="evenodd">
        <g id="Artboard" transform="translate(0.000000, -1.000000)" fill="#000000">
            <path d="M15.9230769,3.07692308 C17.0685,3.07692308 18,4.00842308 18,5.15384615 L18,7.23076923 L0,7.23076923 L0,5.15384615 C0,4.00842308 0.9315,3.07692308 2.07692308,3.07692308 L3.46153846,3.07692308 L3.46153846,1.69230769 C3.46153846,1.31015385 3.77169231,1 4.15384615,1 C4.536,1 4.84615385,1.31015385 4.84615385,1.69230769 L4.84615385,3.07692308 L13.8461538,3.07692308 L13.8461538,1.69230769 C13.8461538,1.31015385 14.1563077,1 14.5384615,1 C14.9206154,1 15.2307692,1.31015385 15.2307692,1.69230769 L15.2307692,3.07692308 L15.9230769,3.07692308 Z M0,16.9230769 L0,8.61538462 L18,8.61538462 L18,16.9230769 C18,18.0685 17.0685,19 15.9230769,19 L2.07692308,19 C0.9315,19 0,18.0685 0,16.9230769 Z" id="icon-calendar-solid"></path>
        </g>
    </g>
</svg>