<?xml version="1.0" encoding="UTF-8"?>
<svg width="14px" height="20px" viewBox="0 0 14 20" version="1.1" xmlns="http://www.w3.org/2000/svg" xmlns:xlink="http://www.w3.org/1999/xlink">
    <!-- Generator: Sketch 52.4 (67378) - http://www.bohemiancoding.com/sketch -->
    <title>icon-location-stroke</title>
    <desc>Created with Sketch.</desc>
    <g id="Page-1" stroke="none" stroke-width="1" fill="none" fill-rule="evenodd">
        <g id="Artboard" fill="#000000" fill-rule="nonzero">
            <path d="M7,0 C10.87,0 14,3.13 14,7 C14,12.25 7,20 7,20 C7,20 0,12.25 0,7 C0,3.13 3.13,0 7,0 Z M2,7 C2,9.85 4.92,14.21 7,16.88 C9.12,14.19 12,9.88 12,7 C12,4.24 9.76,2 7,2 C4.24,2 2,4.24 2,7 Z M7,9.5 C5.61928813,9.5 4.5,8.38071187 4.5,7 C4.5,5.61928813 5.61928813,4.5 7,4.5 C8.38071187,4.5 9.5,5.61928813 9.5,7 C9.5,8.38071187 8.38071187,9.5 7,9.5 Z" id="icon-location-stroke"></path>
        </g>
    </g>
</svg>