<?xml version="1.0" encoding="UTF-8"?>
<svg width="18px" height="17px" viewBox="0 0 18 17" version="1.1" xmlns="http://www.w3.org/2000/svg" xmlns:xlink="http://www.w3.org/1999/xlink">
    <!-- Generator: Sketch 52.4 (67378) - http://www.bohemiancoding.com/sketch -->
    <title>icon-wallet</title>
    <desc>Created with Sketch.</desc>
    <g id="Page-1" stroke="none" stroke-width="1" fill="none" fill-rule="evenodd">
        <g id="Artboard" fill="#000000" fill-rule="nonzero">
            <path d="M16.1999996,3.8519999 C16.7309996,4.16699989 17.0999995,4.73399987 17.0999995,5.39999986 L17.0999995,10.7999997 C17.0999995,11.4659997 16.7309996,12.0329997 16.1999996,12.3479997 L16.1999996,14.3999996 C16.1999996,15.3899996 15.3899996,16.1999996 14.3999996,16.1999996 L1.79999995,16.1999996 C0.800999979,16.1999996 0,15.3899996 0,14.3999996 L0,1.79999995 C0,0.809999979 0.800999979,-1.77635684e-15 1.79999995,-1.77635684e-15 L14.3999996,-1.77635684e-15 C15.3899996,-1.77635684e-15 16.1999996,0.809999979 16.1999996,1.79999995 L16.1999996,3.8519999 Z M15.2999996,5.39999986 L8.99999976,5.39999986 L8.99999976,10.7999997 L15.2999996,10.7999997 L15.2999996,5.39999986 Z M1.79999995,14.3999996 L14.3999996,14.3999996 L14.3999996,12.5999997 L8.99999976,12.5999997 C8.00999979,12.5999997 7.19999981,11.7899997 7.19999981,10.7999997 L7.19999981,5.39999986 C7.19999981,4.40999988 8.00999979,3.5999999 8.99999976,3.5999999 L14.3999996,3.5999999 L14.3999996,1.79999995 L1.79999995,1.79999995 L1.79999995,14.3999996 Z M11.6999997,9.44999975 C10.9544153,9.44999975 10.3499997,8.84558418 10.3499997,8.09999979 C10.3499997,7.35441539 10.9544153,6.74999982 11.6999997,6.74999982 C12.4455841,6.74999982 13.0499997,7.35441539 13.0499997,8.09999979 C13.0499997,8.84558418 12.4455841,9.44999975 11.6999997,9.44999975 Z" id="icon-wallet"></path>
        </g>
    </g>
</svg>