<?xml version="1.0" encoding="UTF-8"?>
<svg width="22px" height="22px" viewBox="0 0 22 22" version="1.1" xmlns="http://www.w3.org/2000/svg" xmlns:xlink="http://www.w3.org/1999/xlink">
    <!-- Generator: Sketch 52.4 (67378) - http://www.bohemiancoding.com/sketch -->
    <title>icon-food</title>
    <desc>Created with Sketch.</desc>
    <g id="Page-1" stroke="none" stroke-width="1" fill="none" fill-rule="evenodd">
        <g id="Artboard" fill="#000000" fill-rule="nonzero">
            <path d="M0,20.98 C0,21.54 0.45,21.99 1.01,21.99 L14,21.99 C14.56,21.99 15.01,21.54 15.01,20.98 L15.01,20 L0,20 L0,20.98 Z M7.5,7.99 C3.75,7.99 0,10 0,14 L15,14 C15,10 11.25,7.99 7.5,7.99 Z M2.62,12 C3.73,10.45 6.09,9.99 7.5,9.99 C8.91,9.99 11.27,10.45 12.38,12 L2.62,12 Z M0,16 L15,16 L15,18 L0,18 L0,16 Z M17,4 L17,0 L15,0 L15,4 L10,4 L10.23,6 L19.79,6 L18.39,20 L17,20 L17,22 L18.72,22 C19.56,22 20.25,21.35 20.35,20.53 L22,4 L17,4 Z" id="icon-food"></path>
        </g>
    </g>
</svg>