<?xml version="1.0" encoding="UTF-8"?>
<svg width="22px" height="22px" viewBox="0 0 22 22" version="1.1" xmlns="http://www.w3.org/2000/svg" xmlns:xlink="http://www.w3.org/1999/xlink">
    <!-- Generator: Sketch 52.4 (67378) - http://www.bohemiancoding.com/sketch -->
    <title>icon-languages</title>
    <desc>Created with Sketch.</desc>
    <g id="Page-1" stroke="none" stroke-width="1" fill="none" fill-rule="evenodd">
        <g id="Artboard" fill="#000000">
            <path d="M14.2591087,19.4800435 C15.1113696,18.3358043 16.0765,16.6994348 16.6456304,14.6395652 C17.8429565,14.5331522 18.7903913,14.4097609 19.4606739,14.3081304 C18.5309348,16.6774348 16.6351087,18.5636957 14.2591087,19.4800435 M2.53693478,14.3023913 C3.21056522,14.4028261 4.16397826,14.5257391 5.35221739,14.6326304 C5.92134783,16.6956087 6.88767391,18.3343696 7.74065217,19.4800435 C5.36297826,18.5629783 3.46595652,16.6743261 2.53693478,14.3023913 M7.7958913,2.49795652 C6.94123913,3.65295652 5.95793478,5.30630435 5.37326087,7.359 C4.1666087,7.4658913 3.21271739,7.59023913 2.53908696,7.6921087 C3.47576087,5.3043913 5.39382609,3.40641304 7.7958913,2.49795652 M19.4630652,7.69784783 C18.7858478,7.59693478 17.8257391,7.47306522 16.6286522,7.36593478 C16.0442174,5.31013043 15.0594783,3.6543913 14.2041087,2.49795652 C16.6078478,3.4068913 18.5271087,5.30726087 19.4630652,7.69784783 M16.9610435,8.84136957 C18.3633043,8.97934783 19.3808043,9.13382609 19.9114348,9.22326087 C20.0257391,9.79813043 20.0869565,10.3918913 20.0869565,11 C20.0869565,11.6090652 20.0257391,12.2040217 19.9107174,12.780087 C19.3879783,12.8709565 18.3817174,13.0268696 16.9672609,13.1653261 C17.0772609,12.4804565 17.1411087,11.7587609 17.1411087,11 C17.1411087,10.2467391 17.0751087,9.52671739 16.9610435,8.84136957 M11.7173913,13.4408043 L11.7173913,8.55967391 C13.1088913,8.57545652 14.3715,8.63547826 15.475087,8.7151087 C15.6197609,9.43465217 15.7063261,10.1972391 15.7063261,11 C15.7063261,11.8082609 15.6228696,12.5718043 15.4832174,13.289913 C14.3865652,13.3676304 13.1244348,13.4257391 11.7173913,13.4408043 M10.2826087,1.9438913 L10.2826087,7.12465217 C9.04582609,7.13732609 7.92095652,7.18180435 6.91876087,7.2435 C7.83367391,4.51119565 9.49658696,2.61273913 10.1338696,1.95513043 C10.1831304,1.95058696 10.2331087,1.94771739 10.2826087,1.9438913 M11.8675652,1.95536957 C12.5062826,2.61154348 14.1723043,4.50713043 15.0857826,7.24828261 C14.0756957,7.18443478 12.9474783,7.13804348 11.7173913,7.1248913 L11.7173913,1.9438913 C11.7673696,1.94795652 11.8178261,1.95058696 11.8675652,1.95536957 M6.29367391,11 C6.29367391,10.1958043 6.38095652,9.43130435 6.52730435,8.7096087 C7.62132609,8.63236957 8.8801087,8.57473913 10.2826087,8.55967391 L10.2826087,13.4405652 C8.88728261,13.4247826 7.62156522,13.3645217 6.51582609,13.2846522 C6.37665217,12.5679783 6.29367391,11.8063478 6.29367391,11 M1.91304348,11 C1.91304348,10.3909348 1.97426087,9.79597826 2.08904348,9.2203913 C2.61273913,9.12928261 3.62163043,8.9728913 5.03991304,8.83419565 C4.92513043,9.52169565 4.8588913,10.2441087 4.8588913,11 C4.8588913,11.7561304 4.9225,12.4754348 5.03154348,13.1581522 C3.63286957,13.020413 2.61823913,12.866413 2.08856522,12.7769783 C1.97426087,12.2021087 1.91304348,11.6081087 1.91304348,11 M10.1216739,20.0436739 C9.48032609,19.4044783 7.80091304,17.5380652 6.89436957,14.7505217 C7.90947826,14.8153261 9.04415217,14.8621957 10.2826087,14.875587 L10.2826087,20.0558696 C10.2290435,20.0518043 10.175,20.0486957 10.1216739,20.0436739 M11.878087,20.0436739 C11.8247609,20.0486957 11.7709565,20.0518043 11.7173913,20.0558696 L11.7173913,14.875587 C12.9637391,14.862913 14.0962609,14.8179565 15.1039565,14.7553043 C14.1966957,17.5409348 12.5182391,19.405913 11.878087,20.0436739 M11,0 C4.93469565,0 0,4.93445652 0,11 C0,17.0653043 4.93469565,22 11,22 C17.0653043,22 22,17.0653043 22,11 C22,4.93445652 17.0653043,0 11,0" id="icon-languages"></path>
        </g>
    </g>
</svg>