<?xml version="1.0" encoding="UTF-8"?>
<svg width="16px" height="24px" viewBox="0 0 16 24" version="1.1" xmlns="http://www.w3.org/2000/svg" xmlns:xlink="http://www.w3.org/1999/xlink">
    <!-- Generator: Sketch 52.4 (67378) - http://www.bohemiancoding.com/sketch -->
    <title>icon-certificate-stroke</title>
    <desc>Created with Sketch.</desc>
    <g id="Page-1" stroke="none" stroke-width="1" fill="none" fill-rule="evenodd">
        <g id="Artboard-Copy" fill="#000000" fill-rule="nonzero">
            <g id="icon-certificate-stroke">
                <path d="M10.0624158,6.78033057 L8.97866709,6.61541229 L8.49804812,5.62590264 C8.38967325,5.39972901 8.15878767,5.25365854 7.90905428,5.25365854 C7.65932089,5.25365854 7.4284353,5.39030511 7.31534849,5.61647874 L6.82059366,6.59656449 L5.73213305,6.74734691 C5.48239966,6.78033057 5.27507383,6.95467275 5.19497066,7.19027028 C5.1148675,7.43057977 5.17612286,7.68973706 5.35517699,7.86879118 L6.14207276,8.63683915 L5.94888278,9.71587587 C5.90647522,9.9608973 6.00542619,10.2153426 6.20804007,10.3614131 C6.41065395,10.5121955 6.67923514,10.5310433 6.90069682,10.4179565 L7.87607062,9.9137778 L8.84202052,10.4320924 C8.94097148,10.4839238 9.0446344,10.5121955 9.15300927,10.5121955 C9.28965584,10.5121955 9.42159046,10.469788 9.53467727,10.3896848 C9.73729116,10.2436143 9.84095407,9.99388096 9.80325847,9.74885952 L9.62420434,8.66511086 L10.4158121,7.90648679 C10.5948662,7.73214461 10.6655454,7.47298732 10.5901542,7.23267784 C10.514763,6.99236835 10.3074372,6.81802617 10.0624158,6.78033057 Z" id="Shape"></path>
                <path d="M7.94146341,0 C3.5902439,0 0.0325203252,3.53821138 0.0325203252,7.88943089 C0.0325203252,10.1723577 1.04065041,12.2276423 2.53658537,13.6715447 L2.53658537,23.0243902 C2.53658537,23.3691057 2.74471545,23.6813008 3.0504065,23.8373984 C3.35609756,23.9934959 3.73333333,23.9609756 4.01300813,23.7528455 L7.92845528,20.8520325 L11.8439024,23.7528455 C12.0065041,23.8699187 12.195122,23.9349593 12.3837398,23.9349593 C12.5203252,23.9349593 12.6829268,23.902439 12.8065041,23.8373984 C13.1121951,23.6813008 13.3203252,23.3691057 13.3203252,23.0243902 L13.3203252,13.6715447 C14.8162602,12.2276423 15.8308943,10.1723577 15.8308943,7.88943089 C15.8439024,3.53821138 12.2926829,0 7.94146341,0 Z M11.5121951,21.2162602 L8.49430894,18.9918699 C8.16910569,18.7512195 7.70731707,18.7512195 7.38861789,18.9918699 L4.35772358,21.2162602 L4.35772358,14.9398374 C5.46341463,15.4796748 6.6601626,15.7853659 7.93495935,15.7853659 C9.2097561,15.7853659 10.4065041,15.4796748 11.5121951,14.9398374 L11.5121951,21.2162602 Z M7.93495935,13.9577236 C4.59186992,13.9577236 1.86666667,11.2390244 1.86666667,7.88943089 C1.86666667,4.5398374 4.59186992,1.82113821 7.93495935,1.82113821 C11.2780488,1.82113821 14.003252,4.54634146 14.003252,7.88943089 C14.003252,11.2390244 11.2780488,13.9577236 7.93495935,13.9577236 Z" id="Shape"></path>
            </g>
        </g>
    </g>
</svg>