<?xml version="1.0" encoding="UTF-8"?>
<svg width="19px" height="18px" viewBox="0 0 19 18" version="1.1" xmlns="http://www.w3.org/2000/svg" xmlns:xlink="http://www.w3.org/1999/xlink">
    <!-- Generator: Sketch 52.4 (67378) - http://www.bohemiancoding.com/sketch -->
    <title>Shape</title>
    <desc>Created with Sketch.</desc>
    <g id="Symbols" stroke="none" stroke-width="1" fill="none" fill-rule="evenodd">
        <g id="Side-Nav/Consultant" transform="translate(-36.000000, -333.000000)" fill="#000000">
            <g id="Side-nav">
                <g id="Menu" transform="translate(1.004184, 156.000000)">
                    <g id="icons" transform="translate(32.133891, 12.000000)">
                        <path d="M19.0794979,165 L5.0209205,165 C3.91631799,165 3.0125523,165.9 3.0125523,167 L3.0125523,181 C3.0125523,182.1 3.91631799,183 5.0209205,183 L19.0794979,183 C20.1841004,183 21.0878661,182.1 21.0878661,181 L21.0878661,167 C21.0878661,165.9 20.1841004,165 19.0794979,165 L19.0794979,165 Z M17.0711297,171 L7.0292887,171 L7.0292887,169 L17.0711297,169 L17.0711297,171 L17.0711297,171 Z M17.0711297,175 L7.0292887,175 L7.0292887,173 L17.0711297,173 L17.0711297,175 L17.0711297,175 Z M14.0585774,179 L7.0292887,179 L7.0292887,177 L14.0585774,177 L14.0585774,179 L14.0585774,179 Z" id="Shape"></path>
                    </g>
                </g>
            </g>
        </g>
    </g>
</svg>