<?xml version="1.0" encoding="UTF-8"?>
<svg width="14px" height="21px" viewBox="0 0 14 21" version="1.1" xmlns="http://www.w3.org/2000/svg" xmlns:xlink="http://www.w3.org/1999/xlink">
    <!-- Generator: Sketch 52.4 (67378) - http://www.bohemiancoding.com/sketch -->
    <title>icon-income</title>
    <desc>Created with Sketch.</desc>
    <defs>
        <path d="M5.54400022,1.24800005 C5.54400022,0.552000022 6.09600024,0 6.79200027,0 C7.4880003,0 8.04000032,0.552000022 8.04000032,1.24800005 L8.04000032,1.58400006 C9.33600037,1.77600007 10.4880004,2.16000009 11.5200005,2.73600011 C11.9760005,3.00000012 12.3840005,3.45600014 12.3840005,4.17600017 C12.3840005,5.0880002 11.6640005,5.78400023 10.7520004,5.78400023 C10.4640004,5.78400023 10.1760004,5.71200023 9.91200039,5.56800022 C9.24000037,5.20800021 8.56800034,4.9200002 7.92000031,4.75200019 L7.92000031,8.40000033 C11.5680005,9.38400037 13.1280005,10.8720004 13.1280005,13.5600005 C13.1280005,16.2480006 11.0640004,17.9760007 8.04000032,18.3120007 L8.04000032,19.5840008 C8.04000032,20.2800008 7.4880003,20.8320008 6.79200027,20.8320008 C6.09600024,20.8320008 5.54400022,20.2800008 5.54400022,19.5840008 L5.54400022,18.2880007 C3.84000015,18.0720007 2.23200009,17.4720007 0.816000032,16.6080007 C0.312000012,16.2960006 0,15.8160006 0,15.1680006 C0,14.2320006 0.720000029,13.5360005 1.65600007,13.5360005 C1.96800008,13.5360005 2.30400009,13.6560005 2.5920001,13.8480006 C3.60000014,14.4960006 4.56000018,14.9520006 5.66400023,15.1920006 L5.66400023,11.3760005 C2.20800009,10.4400004 0.50400002,9.12000036 0.50400002,6.26400025 C0.50400002,3.62400014 2.5200001,1.84800007 5.54400022,1.53600006 L5.54400022,1.24800005 Z M9.62400038,13.7520005 C9.62400038,12.9600005 9.21600037,12.4320005 7.92000031,11.9760005 L7.92000031,15.3120006 C9.04800036,15.1440006 9.62400038,14.6160006 9.62400038,13.7520005 Z M4.00800016,6.04800024 C4.00800016,6.79200027 4.34400017,7.29600029 5.66400023,7.77600031 L5.66400023,4.53600018 C4.51200018,4.70400019 4.00800016,5.28000021 4.00800016,6.04800024 Z" id="path-1"></path>
    </defs>
    <g id="Page-1" stroke="none" stroke-width="1" fill="none" fill-rule="evenodd">
        <g id="Artboard">
            <mask id="mask-2" fill="white">
                <use xlink:href="#path-1"></use>
            </mask>
            <use id="icon-income" fill="#000000" xlink:href="#path-1"></use>
        </g>
    </g>
</svg>