<?xml version="1.0" encoding="UTF-8"?>
<svg width="30px" height="19px" viewBox="0 0 30 19" version="1.1" xmlns="http://www.w3.org/2000/svg" xmlns:xlink="http://www.w3.org/1999/xlink">
    <!-- Generator: Sketch 52.4 (67378) - http://www.bohemiancoding.com/sketch -->
    <title>icon-education</title>
    <desc>Created with Sketch.</desc>
    <g id="Page-1" stroke="none" stroke-width="1" fill="none" fill-rule="evenodd">
        <g id="Artboard" fill="#000000">
            <g id="icon-education">
                <path d="M14.8739496,11.8985953 C14.0231092,11.8985953 13.1722689,11.7669008 12.3529412,11.5364355 L5.29411765,9.33055312 L5.29411765,14.3678665 C5.29411765,15.2897278 5.86134454,16.0798946 6.71218487,16.3432836 L9.80042017,17.2980685 C13.2037815,18.3516242 16.7962185,18.3516242 20.1995798,17.2980685 L23.2878151,16.3432836 C24.1386555,16.0798946 24.7058824,15.2897278 24.7058824,14.3678665 L24.7058824,9.26470588 L17.394958,11.5364355 C16.5756303,11.7998244 15.7247899,11.8985953 14.8739496,11.8985953 Z" id="Path"></path>
                <path d="M29.3569473,4.44994344 L16.8914873,0.727516968 C15.6607204,0.345729638 14.335279,0.345729638 13.072954,0.727516968 L0.639052065,4.44994344 C-0.213017355,4.70446833 -0.213017355,5.94527715 0.639052065,6.19980204 L13.1045121,9.92222851 C14.335279,10.3040158 15.6607204,10.3040158 16.9230454,9.92222851 L27.5896922,6.74066742 L27.5896922,9.57225679 C27.3687854,9.69951923 27.2109947,9.92222851 27.2109947,10.1767534 L27.2109947,10.9403281 C27.2109947,11.2266686 27.3687854,11.4811934 27.6212504,11.5766403 L26.9585297,13.1356052 C26.8638553,13.3583145 26.9900878,13.5810238 27.2425529,13.6128394 L27.9368316,13.6764706 C28.0630641,13.6764706 28.2208548,13.6764706 28.3470873,13.6764706 L29.0413661,13.6128394 C29.262273,13.5810238 29.3885055,13.3583145 29.3253892,13.1356052 L28.6626686,11.5766403 C28.9151336,11.4493778 29.0729242,11.2266686 29.0729242,10.9403281 L29.0729242,10.1767534 C29.0729242,9.92222851 28.9151336,9.69951923 28.6942267,9.57225679 L28.6942267,6.42251131 L29.3885055,6.19980204 C30.2090168,5.91346154 30.2090168,4.70446833 29.3569473,4.44994344 Z" id="Path"></path>
            </g>
        </g>
    </g>
</svg>