<?xml version="1.0" encoding="UTF-8"?>
<svg width="18px" height="12px" viewBox="0 0 18 12" version="1.1" xmlns="http://www.w3.org/2000/svg" xmlns:xlink="http://www.w3.org/1999/xlink">
    <!-- Generator: Sketch 52.4 (67378) - http://www.bohemiancoding.com/sketch -->
    <title>icon-views</title>
    <desc>Created with Sketch.</desc>
    <g id="Page-1" stroke="none" stroke-width="1" fill="none" fill-rule="evenodd">
        <g id="Artboard" fill="#000000">
            <path d="M16.1375763,7.30013106 C15.1089472,7.30013106 14.2749509,6.45065027 14.2749509,5.40276238 C14.2749509,5.18157072 14.3140792,4.97005747 14.3824528,4.7724569 L12.2291893,3.39651175 C11.9141464,3.64512552 11.5198386,3.79453574 11.0904364,3.79453574 C10.9593366,3.79453574 10.8314639,3.78042141 10.7078267,3.75420909 L7.6669169,8.84746446 C7.95755503,9.18217562 8.13524566,9.6207279 8.13524566,10.1026313 C8.13524566,11.1505192 7.30124935,12 6.2726203,12 C5.24399125,12 4.40999495,11.1505192 4.40999495,10.1026313 C4.40999495,9.91511241 4.43782844,9.73444904 4.48744467,9.56326243 L3.22122247,8.85290856 C2.8813715,9.2227039 2.399126,9.45518701 1.86262535,9.45518701 C0.833996301,9.45518701 0,8.60570622 0,7.55781833 C0,6.51013207 0.833996301,5.66065128 1.86262535,5.66065128 C2.89125441,5.66065128 3.72525071,6.51013207 3.72525071,7.55781833 C3.72525071,7.67335417 3.71355257,7.78606714 3.69398845,7.89595725 L5.06125832,8.66297006 C5.38699086,8.37826394 5.80953554,8.20526263 6.27241861,8.20526263 C6.44748724,8.20526263 6.61610173,8.23167658 6.77685023,8.27764896 L9.78085045,3.24629499 C9.43938594,2.9023087 9.22760937,2.42524448 9.22760937,1.89736869 C9.22760937,0.849682428 10.0616057,0 11.0902347,0 C12.1188638,0 12.9528601,0.849682428 12.9528601,1.89736869 C12.9528601,2.11835871 12.9139335,2.32967033 12.8457616,2.52686763 L14.9994285,3.90301442 C15.3142697,3.65460228 15.7083758,3.50539369 16.1373746,3.50539369 C17.1660037,3.50539369 18,4.35487448 18,5.40256074 C18.0002017,6.4508519 17.1662054,7.30013106 16.1375763,7.30013106 Z" id="icon-views"></path>
        </g>
    </g>
</svg>