<?xml version="1.0" encoding="UTF-8"?>
<svg width="22px" height="19px" viewBox="0 0 22 19" version="1.1" xmlns="http://www.w3.org/2000/svg" xmlns:xlink="http://www.w3.org/1999/xlink">
    <!-- Generator: Sketch 52.4 (67378) - http://www.bohemiancoding.com/sketch -->
    <title>icon-video-intro</title>
    <desc>Created with Sketch.</desc>
    <g id="Page-1" stroke="none" stroke-width="1" fill="none" fill-rule="evenodd">
        <g id="Artboard" fill="#000000">
            <path d="M8,11 C5.790861,11 4,9.209139 4,7 C4,4.790861 5.790861,3 8,3 C10.209139,3 12,4.790861 12,7 C12,9.209139 10.209139,11 8,11 Z M8,13 C10.67,13 16,14.34 16,17 L16,19 L1.59161573e-12,19 L1.59161573e-12,17 C1.59161573e-12,14.34 5.33,13 8,13 Z M15.76,3.36 C17.78,5.56 17.78,8.61 15.76,10.63 L14.08,8.94 C14.92,7.76 14.92,6.23 14.08,5.05 L15.76,3.36 Z M19.07,0 C22.98,4.05 22.97,10.11 19.07,14 L17.44,12.37 C20.21,9.19 20.21,4.65 17.44,1.63 L19.07,0 Z" id="icon-video-intro"></path>
        </g>
    </g>
</svg>