<?xml version="1.0" encoding="UTF-8"?>
<svg width="20px" height="20px" viewBox="0 0 20 20" version="1.1" xmlns="http://www.w3.org/2000/svg" xmlns:xlink="http://www.w3.org/1999/xlink">
    <!-- Generator: Sketch 52.4 (67378) - http://www.bohemiancoding.com/sketch -->
    <title>icon-ratings</title>
    <desc>Created with Sketch.</desc>
    <g id="Page-1" stroke="none" stroke-width="1" fill="none" fill-rule="evenodd">
        <g id="Artboard" fill="#000000">
            <path d="M9.61352385,0.668569016 C4.36952385,0.668569016 0.123023851,4.92456902 0.123023851,10.168569 C0.123023851,15.412569 4.36952385,19.668569 9.61352385,19.668569 C14.8670239,19.668569 19.1230239,15.412569 19.1230239,10.168569 C19.1230239,4.92456902 14.8670239,0.668569016 9.61352385,0.668569016 L9.61352385,0.668569016 Z M9.62302385,17.668569 C5.47927385,17.668569 2.12302385,14.312319 2.12302385,10.168569 C2.12302385,6.02481902 5.47927385,2.66856902 9.62302385,2.66856902 C13.7667739,2.66856902 17.1230239,6.02481902 17.1230239,10.168569 C17.1230239,14.312319 13.7667739,17.668569 9.62302385,17.668569 L9.62302385,17.668569 Z M12.6230239,9.66856902 C13.4530239,9.66856902 14.1230239,8.99856902 14.1230239,8.16856902 C14.1230239,7.33856902 13.4530239,6.66856902 12.6230239,6.66856902 C11.7930239,6.66856902 11.1230239,7.33856902 11.1230239,8.16856902 C11.1230239,8.99856902 11.7930239,9.66856902 12.6230239,9.66856902 L12.6230239,9.66856902 Z M6.62302385,9.66856902 C7.45302385,9.66856902 8.12302385,8.99856902 8.12302385,8.16856902 C8.12302385,7.33856902 7.45302385,6.66856902 6.62302385,6.66856902 C5.79302385,6.66856902 5.12302385,7.33856902 5.12302385,8.16856902 C5.12302385,8.99856902 5.79302385,9.66856902 6.62302385,9.66856902 L6.62302385,9.66856902 Z M9.12302385,15.668569 C11.4028673,15.668569 13.340245,14.4171404 14.1230239,12.668569 L4.12302385,12.668569 C4.90580272,14.4171404 6.84318041,15.668569 9.12302385,15.668569 L9.12302385,15.668569 Z" id="icon-ratings"></path>
        </g>
    </g>
</svg>