<?xml version="1.0" encoding="UTF-8"?>
<svg width="18px" height="19px" viewBox="0 0 18 19" version="1.1" xmlns="http://www.w3.org/2000/svg" xmlns:xlink="http://www.w3.org/1999/xlink">
    <!-- Generator: Sketch 52.4 (67378) - http://www.bohemiancoding.com/sketch -->
    <title>icon-interview</title>
    <desc>Created with Sketch.</desc>
    <g id="Page-1" stroke="none" stroke-width="1" fill="none" fill-rule="evenodd">
        <g id="Artboard" fill="#000000">
            <path d="M10,6.11515152 L8,6.11515152 L8,8.15353535 L10,8.15353535 L10,6.11515152 L10,6.11515152 Z M14,6.11515152 L12,6.11515152 L12,8.15353535 L14,8.15353535 L14,6.11515152 L14,6.11515152 Z M17,12.739899 C15.8,12.739899 14.6,12.5360606 13.4,12.1283838 C13.1,12.0264646 12.7,12.1283838 12.4,12.3322222 L10.2,14.5744444 C7.4,13.1475758 5.1,10.7015152 3.6,7.84777778 L5.8,5.60555556 C6.1,5.29979798 6.2,4.89212121 6,4.58636364 C5.7,3.46525253 5.5,2.24222222 5.5,1.01919192 C5.5,0.407676768 5.1,0 4.5,0 L1,0 C0.4,0 0,0.407676768 0,1.01919192 C0,10.599596 7.6,18.3454545 17,18.3454545 C17.6,18.3454545 18,17.9377778 18,17.3262626 L18,13.7590909 C18,13.1475758 17.6,12.739899 17,12.739899 L17,12.739899 Z M16,6.11515152 L16,8.15353535 L18,8.15353535 L18,6.11515152 L16,6.11515152 L16,6.11515152 Z" id="icon-interview"></path>
        </g>
    </g>
</svg>